<mxfile host="app.diagrams.net" modified="2021-07-16T12:59:25.897Z" agent="5.0 (Macintosh; Intel Mac OS X 10_15_7) AppleWebKit/537.36 (KHTML, like Gecko) Chrome/91.0.4472.114 Safari/537.36" etag="yNkUGumZOWvNWLOSloks" version="14.8.6" type="github">
  <diagram id="C5RBs43oDa-KdzZeNtuy" name="Page-1">
    <mxGraphModel dx="898" dy="623" grid="1" gridSize="10" guides="1" tooltips="1" connect="1" arrows="1" fold="1" page="1" pageScale="1" pageWidth="827" pageHeight="1169" math="0" shadow="0">
      <root>
        <mxCell id="WIyWlLk6GJQsqaUBKTNV-0" />
        <mxCell id="WIyWlLk6GJQsqaUBKTNV-1" parent="WIyWlLk6GJQsqaUBKTNV-0" />
        <mxCell id="B0wBUclij-YmfSDJ0cT5-0" value="" style="rounded=0;html=1;jettySize=auto;orthogonalLoop=1;fontSize=11;endArrow=block;endFill=0;endSize=8;strokeWidth=1;shadow=0;labelBackgroundColor=none;edgeStyle=orthogonalEdgeStyle;entryX=0.5;entryY=0;entryDx=0;entryDy=0;" parent="WIyWlLk6GJQsqaUBKTNV-1" source="B0wBUclij-YmfSDJ0cT5-1" target="6jKG0HWPVX91mhQXRxl7-0" edge="1">
          <mxGeometry relative="1" as="geometry">
            <mxPoint x="220" y="120" as="targetPoint" />
          </mxGeometry>
        </mxCell>
        <mxCell id="B0wBUclij-YmfSDJ0cT5-1" value="대출 탭 클릭 (대출 시작)" style="rounded=1;whiteSpace=wrap;html=1;fontSize=12;glass=0;strokeWidth=1;shadow=0;" parent="WIyWlLk6GJQsqaUBKTNV-1" vertex="1">
          <mxGeometry x="150" y="30" width="140" height="40" as="geometry" />
        </mxCell>
        <mxCell id="B0wBUclij-YmfSDJ0cT5-2" value="No" style="rounded=0;html=1;jettySize=auto;orthogonalLoop=1;fontSize=11;endArrow=block;endFill=0;endSize=8;strokeWidth=1;shadow=0;labelBackgroundColor=none;edgeStyle=orthogonalEdgeStyle;entryX=0.5;entryY=0;entryDx=0;entryDy=0;" parent="WIyWlLk6GJQsqaUBKTNV-1" source="B0wBUclij-YmfSDJ0cT5-4" target="6jKG0HWPVX91mhQXRxl7-6" edge="1">
          <mxGeometry y="20" relative="1" as="geometry">
            <mxPoint as="offset" />
            <mxPoint x="220" y="300" as="targetPoint" />
          </mxGeometry>
        </mxCell>
        <mxCell id="B0wBUclij-YmfSDJ0cT5-3" value="Yes" style="edgeStyle=orthogonalEdgeStyle;rounded=0;html=1;jettySize=auto;orthogonalLoop=1;fontSize=11;endArrow=block;endFill=0;endSize=8;strokeWidth=1;shadow=0;labelBackgroundColor=none;" parent="WIyWlLk6GJQsqaUBKTNV-1" source="B0wBUclij-YmfSDJ0cT5-4" target="B0wBUclij-YmfSDJ0cT5-5" edge="1">
          <mxGeometry y="10" relative="1" as="geometry">
            <mxPoint as="offset" />
          </mxGeometry>
        </mxCell>
        <mxCell id="B0wBUclij-YmfSDJ0cT5-4" value="연체회원인가? or&lt;br&gt;2권을 이미 대출 했는가?" style="rhombus;whiteSpace=wrap;html=1;shadow=0;fontFamily=Helvetica;fontSize=12;align=center;strokeWidth=1;spacing=6;spacingTop=-4;" parent="WIyWlLk6GJQsqaUBKTNV-1" vertex="1">
          <mxGeometry x="120" y="180" width="200" height="80" as="geometry" />
        </mxCell>
        <mxCell id="B0wBUclij-YmfSDJ0cT5-5" value="유저 입력창에 입력 불가&lt;br&gt;(대출 불가)" style="rounded=1;whiteSpace=wrap;html=1;fontSize=12;glass=0;strokeWidth=1;shadow=0;" parent="WIyWlLk6GJQsqaUBKTNV-1" vertex="1">
          <mxGeometry x="370" y="195" width="170" height="50" as="geometry" />
        </mxCell>
        <mxCell id="B0wBUclij-YmfSDJ0cT5-6" value="" style="rounded=0;html=1;jettySize=auto;orthogonalLoop=1;fontSize=11;endArrow=block;endFill=0;endSize=8;strokeWidth=1;shadow=0;labelBackgroundColor=none;edgeStyle=orthogonalEdgeStyle;entryX=0.5;entryY=0;entryDx=0;entryDy=0;entryPerimeter=0;exitX=0.5;exitY=1;exitDx=0;exitDy=0;" parent="WIyWlLk6GJQsqaUBKTNV-1" source="6jKG0HWPVX91mhQXRxl7-6" target="B0wBUclij-YmfSDJ0cT5-11" edge="1">
          <mxGeometry x="0.3333" y="20" relative="1" as="geometry">
            <mxPoint as="offset" />
            <mxPoint x="220" y="380" as="sourcePoint" />
          </mxGeometry>
        </mxCell>
        <mxCell id="B0wBUclij-YmfSDJ0cT5-9" value="도서 입력창에 입력 불가&lt;br&gt;(대출 불가)" style="rounded=1;whiteSpace=wrap;html=1;fontSize=12;glass=0;strokeWidth=1;shadow=0;" parent="WIyWlLk6GJQsqaUBKTNV-1" vertex="1">
          <mxGeometry x="370" y="395" width="153" height="50" as="geometry" />
        </mxCell>
        <mxCell id="B0wBUclij-YmfSDJ0cT5-11" value="대출 하려는 책이&lt;br&gt;예약 도서인가?" style="rhombus;whiteSpace=wrap;html=1;shadow=0;fontFamily=Helvetica;fontSize=12;align=center;strokeWidth=1;spacing=6;spacingTop=-4;" parent="WIyWlLk6GJQsqaUBKTNV-1" vertex="1">
          <mxGeometry x="140" y="380" width="160" height="80" as="geometry" />
        </mxCell>
        <mxCell id="B0wBUclij-YmfSDJ0cT5-12" value="Yes" style="rounded=0;html=1;jettySize=auto;orthogonalLoop=1;fontSize=11;endArrow=block;endFill=0;endSize=8;strokeWidth=1;shadow=0;labelBackgroundColor=none;edgeStyle=orthogonalEdgeStyle;entryX=0;entryY=0.5;entryDx=0;entryDy=0;exitX=1;exitY=0.5;exitDx=0;exitDy=0;" parent="WIyWlLk6GJQsqaUBKTNV-1" source="B0wBUclij-YmfSDJ0cT5-11" target="B0wBUclij-YmfSDJ0cT5-9" edge="1">
          <mxGeometry x="0.3333" y="20" relative="1" as="geometry">
            <mxPoint as="offset" />
            <mxPoint x="220" y="460" as="sourcePoint" />
            <mxPoint x="345" y="420" as="targetPoint" />
          </mxGeometry>
        </mxCell>
        <mxCell id="B0wBUclij-YmfSDJ0cT5-13" value="No" style="edgeStyle=orthogonalEdgeStyle;rounded=0;html=1;jettySize=auto;orthogonalLoop=1;fontSize=11;endArrow=block;endFill=0;endSize=8;strokeWidth=1;shadow=0;labelBackgroundColor=none;exitX=0.5;exitY=1;exitDx=0;exitDy=0;entryX=0.5;entryY=0;entryDx=0;entryDy=0;" parent="WIyWlLk6GJQsqaUBKTNV-1" source="B0wBUclij-YmfSDJ0cT5-11" target="B0wBUclij-YmfSDJ0cT5-14" edge="1">
          <mxGeometry y="10" relative="1" as="geometry">
            <mxPoint as="offset" />
            <mxPoint x="300" y="420" as="sourcePoint" />
            <mxPoint x="320" y="590" as="targetPoint" />
          </mxGeometry>
        </mxCell>
        <mxCell id="B0wBUclij-YmfSDJ0cT5-14" value="비고란 작성 후 대출&lt;br&gt;(비고란 디폴트 : 이상 없음)" style="rounded=1;whiteSpace=wrap;html=1;fontSize=12;glass=0;strokeWidth=1;shadow=0;" parent="WIyWlLk6GJQsqaUBKTNV-1" vertex="1">
          <mxGeometry x="140" y="500" width="160" height="50" as="geometry" />
        </mxCell>
        <mxCell id="6jKG0HWPVX91mhQXRxl7-0" value="유저 검색" style="rounded=1;whiteSpace=wrap;html=1;fontSize=12;glass=0;strokeWidth=1;shadow=0;" vertex="1" parent="WIyWlLk6GJQsqaUBKTNV-1">
          <mxGeometry x="160" y="110" width="120" height="40" as="geometry" />
        </mxCell>
        <mxCell id="6jKG0HWPVX91mhQXRxl7-1" value="" style="rounded=0;html=1;jettySize=auto;orthogonalLoop=1;fontSize=11;endArrow=block;endFill=0;endSize=8;strokeWidth=1;shadow=0;labelBackgroundColor=none;edgeStyle=orthogonalEdgeStyle;entryX=0.5;entryY=0;entryDx=0;entryDy=0;exitX=0.5;exitY=1;exitDx=0;exitDy=0;" edge="1" parent="WIyWlLk6GJQsqaUBKTNV-1" source="6jKG0HWPVX91mhQXRxl7-0" target="B0wBUclij-YmfSDJ0cT5-4">
          <mxGeometry relative="1" as="geometry">
            <mxPoint x="230" y="90" as="sourcePoint" />
            <mxPoint x="230" y="120" as="targetPoint" />
          </mxGeometry>
        </mxCell>
        <mxCell id="6jKG0HWPVX91mhQXRxl7-4" value="대출 완료" style="rounded=1;whiteSpace=wrap;html=1;" vertex="1" parent="WIyWlLk6GJQsqaUBKTNV-1">
          <mxGeometry x="160" y="590" width="120" height="40" as="geometry" />
        </mxCell>
        <mxCell id="6jKG0HWPVX91mhQXRxl7-5" value="" style="edgeStyle=orthogonalEdgeStyle;rounded=0;html=1;jettySize=auto;orthogonalLoop=1;fontSize=11;endArrow=block;endFill=0;endSize=8;strokeWidth=1;shadow=0;labelBackgroundColor=none;exitX=0.5;exitY=1;exitDx=0;exitDy=0;entryX=0.5;entryY=0;entryDx=0;entryDy=0;" edge="1" parent="WIyWlLk6GJQsqaUBKTNV-1" source="B0wBUclij-YmfSDJ0cT5-14" target="6jKG0HWPVX91mhQXRxl7-4">
          <mxGeometry y="10" relative="1" as="geometry">
            <mxPoint as="offset" />
            <mxPoint x="230" y="470" as="sourcePoint" />
            <mxPoint x="230" y="510" as="targetPoint" />
          </mxGeometry>
        </mxCell>
        <mxCell id="6jKG0HWPVX91mhQXRxl7-6" value="도서 DB 검색" style="rounded=1;whiteSpace=wrap;html=1;fontSize=12;glass=0;strokeWidth=1;shadow=0;" vertex="1" parent="WIyWlLk6GJQsqaUBKTNV-1">
          <mxGeometry x="160" y="300" width="120" height="40" as="geometry" />
        </mxCell>
      </root>
    </mxGraphModel>
  </diagram>
</mxfile>
